<svg preserveAspectRatio="none" width="100%" height="100%" overflow="visible" style="display: block;" viewBox="0 0 16 16" fill="none" xmlns="http://www.w3.org/2000/svg">
<path id="Artwork" d="M4.75 4.37212C4.75 3.55003 4.89324 2.76249 5.1543 2.0313C2.99085 3.08568 1.5 5.30395 1.5 7.87212C1.50004 11.4619 4.41024 14.3721 8 14.3721C10.406 14.3721 12.5022 13.0604 13.624 11.1133C13.0281 11.2804 12.4002 11.3721 11.75 11.3721C7.88381 11.3721 4.75004 8.2383 4.75 4.37212ZM6.25 4.37212C6.25004 7.40987 8.71224 9.87212 11.75 9.87212C12.8009 9.87212 13.7794 9.57275 14.6172 9.05864C14.8779 8.89886 15.2093 8.91374 15.4551 9.09575C15.701 9.27787 15.8114 9.59063 15.7344 9.88677C14.8399 13.3255 11.7235 15.8721 8 15.8721C3.58181 15.8721 3.81409e-05 12.2903 0 7.87212C0 3.95665 2.81267 0.705663 6.52441 0.012745C6.82505 -0.0433557 7.1294 0.0889406 7.29395 0.346729C7.45848 0.604528 7.44995 0.936534 7.27246 1.1856C6.62985 2.08751 6.25 3.18357 6.25 4.37212Z" fill="var(--fill-0, black)" fill-opacity="0.55"/>
</svg>
