<svg preserveAspectRatio="none" width="100%" height="100%" overflow="visible" style="display: block;" viewBox="0 0 14 14" fill="none" xmlns="http://www.w3.org/2000/svg">
<g id="Artwork">
<path d="M3 11.75C3.41421 11.75 3.75 11.4142 3.75 11C3.75 10.5858 3.41421 10.25 3 10.25C2.58579 10.25 2.25 10.5858 2.25 11C2.25 11.4142 2.58579 11.75 3 11.75Z" fill="var(--fill-0, black)" fill-opacity="0.55"/>
<path fill-rule="evenodd" clip-rule="evenodd" d="M6 10.1213V1.75C6 0.783787 5.21621 0 4.25 0H1.75C0.783786 0 0 0.783787 0 1.75V11C0 12.6562 1.34379 14 3 14H12.25C13.2162 14 14 13.2162 14 12.25V9.75C14 8.78379 13.2162 8 12.25 8H11.967C11.5528 8 11.217 8.33579 11.217 8.75C11.217 9.16421 11.5528 9.5 11.967 9.5H12.25C12.3878 9.5 12.5 9.61221 12.5 9.75V12.25C12.5 12.3878 12.3878 12.5 12.25 12.5H5.74262L11.6623 6.58029C12.3457 5.89687 12.3465 4.7884 11.6617 4.10495L9.89433 2.33763C9.21096 1.65425 8.10288 1.65313 7.41942 2.33788L7.21967 2.53763C6.92678 2.83052 6.92678 3.30539 7.21967 3.59829C7.51257 3.89118 7.98744 3.89118 8.28033 3.59829L8.48101 3.39761C8.57759 3.30078 8.73519 3.2998 8.83367 3.39829L10.6024 5.16697C10.6992 5.26354 10.7002 5.42114 10.6017 5.51963L6 10.1213ZM4.5 11C4.5 11.8278 3.82779 12.5 3 12.5C2.17221 12.5 1.5 11.8278 1.5 11V1.75C1.5 1.61221 1.61221 1.5 1.75 1.5H4.25C4.38779 1.5 4.5 1.61221 4.5 1.75V11Z" fill="var(--fill-0, black)" fill-opacity="0.55"/>
</g>
</svg>
