<svg preserveAspectRatio="none" width="100%" height="100%" overflow="visible" style="display: block;" viewBox="0 0 18 18" fill="none" xmlns="http://www.w3.org/2000/svg">
<g id="Artwork">
<path d="M9 15C9.41421 15 9.75 15.3358 9.75 15.75V17.25C9.75 17.6642 9.41421 18 9 18C8.58579 18 8.25 17.6642 8.25 17.25V15.75C8.25 15.3358 8.58579 15 9 15Z" fill="var(--fill-0, black)" fill-opacity="0.8"/>
<path d="M15.3652 14.3037C15.6577 14.5966 15.658 15.0725 15.3652 15.3652C15.0725 15.658 14.5966 15.6577 14.3037 15.3652L15.3652 14.3037Z" fill="var(--fill-0, black)" fill-opacity="0.8"/>
<path d="M3.69629 13.2422C3.98914 12.9496 4.46499 12.9496 4.75781 13.2422C5.05028 13.5349 5.05011 14.0099 4.75781 14.3027L3.69629 15.3643C3.40346 15.6568 2.92857 15.6568 2.63574 15.3643C2.34304 15.0713 2.34291 14.5956 2.63574 14.3027L3.69629 13.2422Z" fill="var(--fill-0, black)" fill-opacity="0.8"/>
<path d="M13.2432 13.2432C13.5178 12.9686 13.9525 12.9511 14.2471 13.1914L14.3037 13.2432L15.3652 14.3037L14.834 14.834L14.3037 15.3652L13.2432 14.3037L13.1914 14.2471C12.9511 13.9525 12.9686 13.5178 13.2432 13.2432Z" fill="var(--fill-0, black)" fill-opacity="0.8"/>
<path fill-rule="evenodd" clip-rule="evenodd" d="M9 4C11.7614 4 14 6.23858 14 9C14 11.7614 11.7614 14 9 14C6.23858 14 4 11.7614 4 9C4 6.23858 6.23858 4 9 4ZM9 5.5C7.067 5.5 5.5 7.067 5.5 9C5.5 10.933 7.067 12.5 9 12.5C10.933 12.5 12.5 10.933 12.5 9C12.5 7.067 10.933 5.5 9 5.5Z" fill="var(--fill-0, black)" fill-opacity="0.8"/>
<path d="M2.25 8.25C2.66421 8.25 3 8.58579 3 9C3 9.41421 2.66421 9.75 2.25 9.75H0.75C0.335786 9.75 0 9.41421 0 9C0 8.58579 0.335786 8.25 0.75 8.25H2.25Z" fill="var(--fill-0, black)" fill-opacity="0.8"/>
<path d="M17.25 8.25C17.6642 8.25 18 8.58579 18 9C18 9.41421 17.6642 9.75 17.25 9.75H15.75C15.3358 9.75 15 9.41421 15 9C15 8.58579 15.3358 8.25 15.75 8.25H17.25Z" fill="var(--fill-0, black)" fill-opacity="0.8"/>
<path d="M4.75781 3.69629C5.05054 3.9892 5.05065 4.46497 4.75781 4.75781C4.46497 5.05065 3.9892 5.05054 3.69629 4.75781L4.75781 3.69629Z" fill="var(--fill-0, black)" fill-opacity="0.8"/>
<path d="M14.3027 2.63574C14.5956 2.34291 15.0713 2.34304 15.3643 2.63574C15.6568 2.92857 15.6568 3.40346 15.3643 3.69629L14.3027 4.75781C14.0099 5.05011 13.5349 5.05028 13.2422 4.75781C12.9496 4.46499 12.9496 3.98914 13.2422 3.69629L14.3027 2.63574Z" fill="var(--fill-0, black)" fill-opacity="0.8"/>
<path d="M2.63574 2.63574C2.91035 2.36114 3.34507 2.34368 3.63965 2.58398L3.69629 2.63574L4.75781 3.69629L4.22656 4.22656L3.69629 4.75781L2.63574 3.69629L2.58398 3.63965C2.34368 3.34507 2.36114 2.91035 2.63574 2.63574Z" fill="var(--fill-0, black)" fill-opacity="0.8"/>
<path d="M9 0C9.41421 0 9.75 0.335786 9.75 0.75V2.25C9.75 2.66421 9.41421 3 9 3C8.58579 3 8.25 2.66421 8.25 2.25V0.75C8.25 0.335786 8.58579 0 9 0Z" fill="var(--fill-0, black)" fill-opacity="0.8"/>
</g>
</svg>
