<svg preserveAspectRatio="none" width="100%" height="100%" overflow="visible" style="display: block;" viewBox="0 0 14 16" fill="none" xmlns="http://www.w3.org/2000/svg">
<g id="Artwork">
<path d="M3 5.75C3 5.33579 3.33579 5 3.75 5H5.75C6.16421 5 6.5 5.33579 6.5 5.75C6.5 6.16421 6.16421 6.5 5.75 6.5H3.75C3.33579 6.5 3 6.16421 3 5.75Z" fill="var(--fill-0, white)"/>
<path d="M3 8.75C3 8.33579 3.33579 8 3.75 8H10.25C10.6642 8 11 8.33579 11 8.75C11 9.16421 10.6642 9.5 10.25 9.5H3.75C3.33579 9.5 3 9.16421 3 8.75Z" fill="var(--fill-0, white)"/>
<path d="M3.75 11C3.33579 11 3 11.3358 3 11.75C3 12.1642 3.33579 12.5 3.75 12.5H10.25C10.6642 12.5 11 12.1642 11 11.75C11 11.3358 10.6642 11 10.25 11H3.75Z" fill="var(--fill-0, white)"/>
<path fill-rule="evenodd" clip-rule="evenodd" d="M0 2.75C0 1.23079 1.23079 0 2.75 0H8.336C8.79834 0 9.24493 0.182934 9.57396 0.513301L9.57474 0.514086L13.4873 4.42667C13.816 4.75536 14 5.20014 14 5.664V13.25C14 14.7692 12.7692 16 11.25 16H2.75C1.23079 16 0 14.7692 0 13.25V2.75ZM2.75 1.5C2.05921 1.5 1.5 2.05921 1.5 2.75V13.25C1.5 13.9408 2.05921 14.5 2.75 14.5H11.25C11.9408 14.5 12.5 13.9408 12.5 13.25V6.00005H9.75C8.78379 6.00005 8 5.21626 8 4.25005V1.5H2.75ZM9.5 2.56066V4.25005C9.5 4.38784 9.61221 4.50005 9.75 4.50005H11.4394L9.5 2.56066Z" fill="var(--fill-0, white)"/>
</g>
</svg>
