<svg xmlns="http://www.w3.org/2000/svg" width="20" height="20" viewBox="0 0 20 20" fill="none">
  <path d="M10 16C10.4142 16 10.75 16.3358 10.75 16.75V18.25C10.75 18.6642 10.4142 19 10 19C9.58579 19 9.25 18.6642 9.25 18.25V16.75C9.25 16.3358 9.58579 16 10 16Z" fill="black" fill-opacity="0.8"/>
  <path d="M16.3652 15.3037C16.6577 15.5966 16.658 16.0725 16.3652 16.3652C16.0725 16.658 15.5966 16.6577 15.3037 16.3652L16.3652 15.3037Z" fill="black" fill-opacity="0.8"/>
  <path d="M4.69629 14.2422C4.98914 13.9496 5.46499 13.9496 5.75781 14.2422C6.05028 14.5349 6.05011 15.0099 5.75781 15.3027L4.69629 16.3643C4.40346 16.6568 3.92857 16.6568 3.63574 16.3643C3.34304 16.0713 3.34291 15.5956 3.63574 15.3027L4.69629 14.2422Z" fill="black" fill-opacity="0.8"/>
  <path d="M14.2432 14.2432C14.5178 13.9686 14.9525 13.9511 15.2471 14.1914L15.3037 14.2432L16.3652 15.3037L15.834 15.834L15.3037 16.3652L14.2432 15.3037L14.1914 15.2471C13.9511 14.9525 13.9686 14.5178 14.2432 14.2432Z" fill="black" fill-opacity="0.8"/>
  <path fill-rule="evenodd" clip-rule="evenodd" d="M10 5C12.7614 5 15 7.23858 15 10C15 12.7614 12.7614 15 10 15C7.23858 15 5 12.7614 5 10C5 7.23858 7.23858 5 10 5ZM10 6.5C8.067 6.5 6.5 8.067 6.5 10C6.5 11.933 8.067 13.5 10 13.5C11.933 13.5 13.5 11.933 13.5 10C13.5 8.067 11.933 6.5 10 6.5Z" fill="black" fill-opacity="0.8"/>
  <path d="M3.25 9.25C3.66421 9.25 4 9.58579 4 10C4 10.4142 3.66421 10.75 3.25 10.75H1.75C1.33579 10.75 1 10.4142 1 10C1 9.58579 1.33579 9.25 1.75 9.25H3.25Z" fill="black" fill-opacity="0.8"/>
  <path d="M18.25 9.25C18.6642 9.25 19 9.58579 19 10C19 10.4142 18.6642 10.75 18.25 10.75H16.75C16.3358 10.75 16 10.4142 16 10C16 9.58579 16.3358 9.25 16.75 9.25H18.25Z" fill="black" fill-opacity="0.8"/>
  <path d="M5.75781 4.69629C6.05054 4.9892 6.05065 5.46497 5.75781 5.75781C5.46497 6.05065 4.9892 6.05054 4.69629 5.75781L5.75781 4.69629Z" fill="black" fill-opacity="0.8"/>
  <path d="M15.3027 3.63574C15.5956 3.34291 16.0713 3.34304 16.3643 3.63574C16.6568 3.92857 16.6568 4.40346 16.3643 4.69629L15.3027 5.75781C15.0099 6.05011 14.5349 6.05028 14.2422 5.75781C13.9496 5.46499 13.9496 4.98914 14.2422 4.69629L15.3027 3.63574Z" fill="black" fill-opacity="0.8"/>
  <path d="M3.63574 3.63574C3.91035 3.36114 4.34507 3.34368 4.63965 3.58398L4.69629 3.63574L5.75781 4.69629L5.22656 5.22656L4.69629 5.75781L3.63574 4.69629L3.58398 4.63965C3.34368 4.34507 3.36114 3.91035 3.63574 3.63574Z" fill="black" fill-opacity="0.8"/>
  <path d="M10 1C10.4142 1 10.75 1.33579 10.75 1.75V3.25C10.75 3.66421 10.4142 4 10 4C9.58579 4 9.25 3.66421 9.25 3.25V1.75C9.25 1.33579 9.58579 1 10 1Z" fill="black" fill-opacity="0.8"/>
</svg>

