<svg xmlns="http://www.w3.org/2000/svg" width="20" height="20" viewBox="0 0 20 20" fill="none">
  <path d="M6.75 6.37212C6.75 5.55003 6.89324 4.76249 7.1543 4.0313C4.99085 5.08568 3.5 7.30395 3.5 9.87212C3.50004 13.4619 6.41024 16.3721 10 16.3721C12.406 16.3721 14.5022 15.0604 15.624 13.1133C15.0281 13.2804 14.4002 13.3721 13.75 13.3721C9.88381 13.3721 6.75004 10.2383 6.75 6.37212ZM8.25 6.37212C8.25004 9.40987 10.7122 11.8721 13.75 11.8721C14.8009 11.8721 15.7794 11.5728 16.6172 11.0586C16.8779 10.8989 17.2093 10.9137 17.4551 11.0958C17.701 11.2779 17.8114 11.5906 17.7344 11.8868C16.8399 15.3255 13.7235 17.8721 10 17.8721C5.58181 17.8721 2.00004 14.2903 2 9.87212C2 5.95665 4.81267 2.70566 8.52441 2.01274C8.82505 1.95664 9.1294 2.08894 9.29395 2.34673C9.45848 2.60453 9.44995 2.93653 9.27246 3.1856C8.62985 4.08751 8.25 5.18357 8.25 6.37212Z" fill="black" fill-opacity="0.55"/>
</svg>

