<svg xmlns="http://www.w3.org/2000/svg" width="16" height="18" viewBox="0 0 16 18" fill="none">
  <path fill-rule="evenodd" clip-rule="evenodd" d="M6.59678 0.267381C6.33023 -0.0496722 5.85712 -0.0906106 5.54007 0.175942C5.22301 0.442495 5.18208 0.9156 5.44863 1.23265L6.32015 2.26929L1.01008 6.6093C-0.166965 7.57069 -0.339912 9.30331 0.621048 10.4787L3.58821 14.0739L3.5893 14.0752C4.56035 15.2607 6.31276 15.4234 7.4862 14.4382L13.3722 9.49221C13.5245 9.36423 13.6197 9.18097 13.6369 8.98277C13.6541 8.78456 13.5918 8.58766 13.4638 8.43538L6.59678 0.267381ZM1.95933 7.77073L7.28551 3.41755L11.1389 8.00098H1.74067C1.80209 7.91709 1.87505 7.83955 1.95933 7.77073ZM1.75985 9.50098C1.76689 9.5101 1.77407 9.51915 1.78139 9.52813L1.78235 9.52931L4.74921 13.1241C5.19039 13.6634 5.98733 13.7381 6.52145 13.2896L11.0301 9.50098H1.75985Z" fill="black" fill-opacity="0.55"/>
  <path fill-rule="evenodd" clip-rule="evenodd" d="M13.3747 11.001C13.603 11.001 13.8189 11.105 13.9612 11.2836C14.144 11.513 14.3424 11.723 14.5593 11.9516L14.5768 11.9701C14.7815 12.1857 15.008 12.4244 15.2104 12.6813C15.6464 13.2348 15.9997 13.9095 15.9997 14.848C15.9997 16.3025 14.8355 17.501 13.3747 17.501C11.9139 17.501 10.7497 16.3025 10.7497 14.848C10.7497 13.9095 11.103 13.2348 11.539 12.6813C11.7414 12.4244 11.9678 12.1858 12.1725 11.9701L12.1901 11.9516C12.407 11.723 12.6054 11.513 12.7882 11.2836C12.9305 11.105 13.1464 11.001 13.3747 11.001ZM12.7174 13.6094C12.4219 13.9846 12.2497 14.3415 12.2497 14.848C12.2497 15.4954 12.7635 16.001 13.3747 16.001C13.9859 16.001 14.4997 15.4954 14.4997 14.848C14.4997 14.3415 14.3275 13.9846 14.032 13.6094C13.8744 13.4093 13.6908 13.2155 13.4713 12.9842L13.3747 12.8823L13.2781 12.9842C13.0585 13.2155 12.875 13.4093 12.7174 13.6094Z" fill="black" fill-opacity="0.55"/>
</svg>

